<?xml version="1.0" standalone="no"?>
<!DOCTYPE svg PUBLIC "-//W3C//DTD SVG 20010904//EN"
 "http://www.w3.org/TR/2001/REC-SVG-20010904/DTD/svg10.dtd">
<svg version="1.0" xmlns="http://www.w3.org/2000/svg"
 width="600.000000pt" height="400.000000pt" viewBox="0 0 600.000000 400.000000"
 preserveAspectRatio="xMidYMid meet">
<g transform="translate(0.000000,400.000000) scale(0.100000,-0.100000)"
fill="#000000" stroke="none">
<path d="M2796 2937 c-52 -13 -73 -34 -62 -62 5 -14 13 -16 44 -11 112 19 204
26 271 20 345 -30 647 -260 757 -576 35 -100 52 -118 73 -79 21 38 -57 223
-141 336 -125 167 -312 298 -508 355 -91 27 -353 37 -434 17z m356 -22 c328
-69 591 -299 699 -613 21 -62 23 -72 11 -72 -5 0 -14 19 -21 43 -88 299 -353
545 -667 618 -80 18 -114 21 -227 17 -72 -3 -145 -11 -161 -17 -19 -8 -33 -8
-39 -2 -10 10 36 25 98 34 75 10 239 6 307 -8z"/>
<path d="M2953 2794 c-12 -3 -26 -11 -32 -18 -10 -12 -90 -223 -201 -531 -24
-66 -48 -126 -53 -132 -5 -7 -29 -13 -53 -13 -55 0 -55 4 -13 149 32 111 32
151 0 151 -29 0 -70 -55 -118 -160 -66 -143 -66 -142 -102 -155 -18 -6 -51
-26 -73 -44 -32 -27 -39 -38 -36 -65 2 -26 7 -31 28 -31 19 0 25 5 25 23 0 15
11 30 33 43 17 12 32 17 32 12 -1 -29 -59 -188 -69 -185 -34 7 -38 -92 -4
-105 27 -10 46 26 93 170 32 101 48 137 62 140 17 5 18 -1 12 -96 -4 -65 -2
-128 6 -175 6 -40 10 -75 8 -78 -3 -2 -26 -8 -53 -13 -52 -10 -65 -22 -65 -62
0 -55 18 -59 237 -59 228 1 236 4 231 64 -3 44 -12 51 -83 63 l-50 8 1 45 c1
25 7 58 13 74 l12 30 19 -31 c31 -51 84 -52 110 -3 14 26 -1 26 -18 0 -15 -24
-54 -26 -76 -4 -32 32 -13 128 35 177 15 15 31 36 34 47 5 17 13 20 38 15 18
-3 58 -6 89 -8 32 -1 58 -3 58 -5 0 -2 -14 -15 -30 -29 -17 -14 -29 -28 -26
-31 3 -2 25 11 49 31 46 37 67 36 67 -5 0 -14 -8 -18 -40 -18 -22 0 -49 -6
-60 -12 -16 -10 -22 -10 -28 -1 -4 6 -36 13 -72 14 l-64 3 -18 -40 c-20 -44
-24 -119 -7 -130 6 -3 23 5 37 20 15 14 22 26 15 26 -6 0 -16 -7 -23 -15 -7
-8 -16 -15 -21 -15 -13 0 -11 65 3 95 11 25 13 26 109 23 62 -2 95 -6 91 -13
-3 -5 -24 -35 -47 -65 -85 -111 -108 -191 -57 -198 13 -2 30 2 37 8 22 18 98
137 134 208 44 87 57 81 98 -38 40 -120 42 -147 7 -160 -14 -6 -36 -10 -48
-10 -27 0 -56 -29 -56 -56 0 -11 7 -30 16 -42 15 -22 19 -22 233 -22 198 0
219 2 234 18 38 41 15 97 -42 106 -50 8 -61 24 -101 142 -29 84 -29 90 -13
101 34 23 53 46 65 79 10 28 17 33 54 39 23 3 50 15 60 27 19 21 19 21 -6 8
-14 -8 -43 -16 -65 -19 -29 -4 -41 -11 -43 -25 -3 -11 -16 -37 -30 -58 -18
-28 -31 -38 -46 -36 -17 2 -21 10 -21 43 0 22 4 49 8 60 6 17 3 20 -25 20 -17
0 -33 6 -35 13 -3 8 8 12 36 12 31 0 46 6 65 26 26 29 42 26 57 -13 8 -21 13
-24 42 -18 55 12 67 26 15 19 -41 -5 -47 -4 -53 15 -10 33 -41 36 -76 7 -36
-30 -84 -35 -92 -8 -6 19 -127 373 -182 532 -20 58 -44 113 -54 124 -19 18
-85 29 -128 20z m114 -38 c4 -4 92 -255 178 -507 41 -120 42 -126 24 -137 -10
-7 -24 -12 -32 -12 -7 0 -28 -11 -47 -24 l-35 -23 -2 26 c-1 14 -2 38 -3 54
-2 32 -33 38 -49 9 -5 -9 -26 -23 -48 -30 -21 -7 -55 -20 -76 -29 -33 -14 -40
-14 -52 -2 -12 12 -11 19 8 54 22 39 78 85 104 85 26 0 25 -30 -1 -65 -28 -37
-25 -45 8 -20 11 8 28 15 38 15 10 0 18 3 18 6 0 9 -130 427 -133 431 -2 1
-31 -85 -65 -193 -37 -115 -67 -192 -73 -189 -17 11 -53 -20 -84 -74 -16 -28
-36 -51 -44 -51 -7 0 -11 6 -9 13 2 6 58 159 124 339 97 267 123 328 139 331
23 4 106 -1 112 -7z m-63 -380 c40 -126 43 -146 21 -146 -8 0 -30 -13 -48 -30
-22 -19 -46 -30 -64 -30 -16 0 -34 -5 -41 -12 -6 -6 -14 -9 -17 -7 -2 3 18 75
46 160 28 84 52 160 55 167 2 6 6 12 8 12 3 0 21 -51 40 -114z m-387 -2 c3 -8
-11 -70 -31 -137 -20 -67 -36 -128 -36 -134 0 -9 17 -13 53 -13 58 0 94 -14
65 -25 -10 -4 -42 -5 -72 -3 -62 3 -58 10 -72 -102 -11 -84 -8 -149 11 -222 4
-15 2 -34 -3 -44 -8 -14 -12 -6 -23 42 -16 68 -18 193 -5 277 l8 58 -28 -7
c-16 -4 -32 -12 -36 -18 -4 -6 -27 -69 -50 -140 -23 -71 -50 -138 -59 -150
l-17 -21 -11 29 c-13 31 -6 70 10 60 6 -3 8 -12 5 -20 -3 -8 -1 -14 4 -14 6 0
10 6 10 14 0 8 17 66 39 131 l38 116 -26 -6 c-14 -4 -41 -18 -59 -32 -27 -20
-31 -27 -21 -39 14 -17 6 -29 -16 -21 -46 18 16 99 91 119 37 10 46 17 55 48
15 45 83 182 116 232 27 40 50 49 60 22z m203 -197 c0 -20 -53 -97 -67 -97
-17 0 -16 11 4 40 18 27 55 70 60 70 2 0 3 -6 3 -13z m100 -26 c0 -17 -41 -79
-55 -85 -18 -6 -19 -1 -5 25 13 23 10 23 -26 5 -35 -19 -53 -9 -23 12 26 18
91 51 102 52 4 0 7 -4 7 -9z m207 -40 c2 -22 -40 -65 -58 -59 -7 2 0 18 21 41
17 20 33 37 34 37 1 0 2 -9 3 -19z m158 -42 c-20 -57 -47 -99 -63 -99 -15 0
-10 22 15 78 13 26 47 62 60 62 1 0 -4 -18 -12 -41z m-215 27 c0 -14 -35 -36
-57 -36 -15 0 -23 3 -19 8 6 5 48 23 74 31 1 1 2 -1 2 -3z m146 -55 c-9 -16
-16 -44 -16 -61 0 -62 63 -22 91 60 11 31 29 41 29 16 0 -24 108 -336 125
-363 18 -26 53 -43 91 -43 21 0 25 -4 22 -24 l-3 -25 -222 -5 -223 -6 0 30 c0
27 3 30 29 30 36 0 83 17 93 33 15 23 8 63 -31 177 -35 104 -41 115 -65 120
l-27 5 33 31 c35 32 81 64 86 59 2 -2 -4 -17 -12 -34z m-411 9 l34 0 -17 -30
c-11 -19 -25 -30 -39 -30 -23 0 -30 -14 -78 -165 -43 -135 -33 -160 65 -171
58 -6 60 -8 60 -35 l0 -29 -210 0 -210 0 0 29 c0 29 0 29 76 36 58 6 74 11 70
21 -3 8 24 96 59 196 36 100 65 183 65 184 0 2 16 3 35 2 19 -1 38 2 42 6 4 4
9 2 11 -3 2 -6 19 -11 37 -11z m-187 -6 c12 -4 22 -11 22 -16 0 -6 -21 -69
-47 -141 -43 -120 -48 -129 -55 -101 -9 28 -2 211 8 247 5 17 31 21 72 11z
m500 -24 c-7 -10 -14 -17 -17 -15 -4 4 18 35 25 35 2 0 -1 -9 -8 -20z m252 10
c0 -5 -4 -10 -10 -10 -5 0 -10 5 -10 10 0 6 5 10 10 10 6 0 10 -4 10 -10z
m-270 -66 c0 -21 -110 -211 -141 -245 -77 -84 -87 -9 -14 100 61 91 155 179
155 145z"/>
<path d="M2978 2149 c-22 -23 -37 -43 -34 -46 8 -8 22 4 56 47 41 52 28 51
-22 -1z"/>
<path d="M2542 2273 c-22 -43 -50 -102 -61 -130 l-21 -53 29 0 c27 0 30 4 40
48 6 26 22 83 35 127 14 43 24 81 22 82 -2 2 -22 -31 -44 -74z m-26 -139 c-7
-36 -26 -47 -26 -14 0 25 23 76 28 61 2 -7 1 -28 -2 -47z"/>
<path d="M3033 1898 c-37 -41 -113 -159 -113 -176 0 -19 61 63 92 123 11 22
27 48 36 58 22 25 9 21 -15 -5z"/>
<path d="M3416 2050 c-27 -58 -32 -80 -17 -80 23 0 64 99 51 121 -6 9 -16 -2
-34 -41z"/>
<path d="M3596 1944 c-7 -19 10 -44 30 -44 15 0 28 35 19 50 -3 5 -12 10 -18
10 -8 0 -7 -3 2 -9 17 -11 7 -45 -12 -38 -6 2 -11 14 -10 26 3 25 -2 27 -11 5z"/>
<path d="M2092 1818 c-19 -19 -14 -47 22 -134 61 -148 173 -285 305 -373 61
-40 115 -71 126 -72 2 0 21 -7 40 -15 83 -34 209 -56 325 -56 185 0 281 30
247 76 -12 17 -18 17 -73 5 -93 -20 -294 -15 -386 9 -231 62 -407 202 -509
405 -27 55 -49 107 -49 116 0 27 -33 54 -48 39z m38 -68 c61 -197 222 -373
423 -465 133 -60 185 -70 357 -69 85 0 173 6 194 12 22 6 42 9 45 6 12 -12
-27 -23 -122 -34 -405 -50 -767 158 -907 521 -34 88 -35 92 -19 87 6 -2 19
-28 29 -58z"/>
</g>
</svg>
